<mxfile host="65bd71144e">
    <diagram id="oLhrSQncojiiVA_1cylI" name="Page-1">
        <mxGraphModel dx="1210" dy="787" grid="1" gridSize="10" guides="1" tooltips="1" connect="1" arrows="1" fold="1" page="1" pageScale="1" pageWidth="850" pageHeight="1100" math="0" shadow="0">
            <root>
                <mxCell id="0"/>
                <mxCell id="1" parent="0"/>
                <mxCell id="85" value="contato" style="ellipse;whiteSpace=wrap;html=1;rotation=0;" parent="1" vertex="1">
                    <mxGeometry x="700" y="60" width="90" height="50" as="geometry"/>
                </mxCell>
                <mxCell id="8" value="ALUNO" style="rounded=0;whiteSpace=wrap;html=1;" parent="1" vertex="1">
                    <mxGeometry x="940" y="710" width="110" height="40" as="geometry"/>
                </mxCell>
                <mxCell id="9" value="PLANO_DE_&lt;br&gt;TREINO" style="rounded=0;whiteSpace=wrap;html=1;" parent="1" vertex="1">
                    <mxGeometry x="810" y="1000" width="110" height="40" as="geometry"/>
                </mxCell>
                <mxCell id="10" value="EXERCICIO" style="rounded=0;whiteSpace=wrap;html=1;" parent="1" vertex="1">
                    <mxGeometry x="500" y="900" width="110" height="40" as="geometry"/>
                </mxCell>
                <mxCell id="11" value="FUNCIONARIO" style="rounded=0;whiteSpace=wrap;html=1;" parent="1" vertex="1">
                    <mxGeometry x="815" y="150" width="110" height="40" as="geometry"/>
                </mxCell>
                <mxCell id="12" value="EQUIPAMENTO" style="rounded=0;whiteSpace=wrap;html=1;" parent="1" vertex="1">
                    <mxGeometry x="320" y="710" width="110" height="40" as="geometry"/>
                </mxCell>
                <mxCell id="13" value="FORNECEDOR" style="rounded=0;whiteSpace=wrap;html=1;" parent="1" vertex="1">
                    <mxGeometry x="320" y="410" width="110" height="40" as="geometry"/>
                </mxCell>
                <mxCell id="14" value="RECEPCIONISTA" style="rounded=0;whiteSpace=wrap;html=1;" parent="1" vertex="1">
                    <mxGeometry x="1070" y="390" width="110" height="40" as="geometry"/>
                </mxCell>
                <mxCell id="15" value="SUPORTE" style="rounded=0;whiteSpace=wrap;html=1;" parent="1" vertex="1">
                    <mxGeometry x="680" y="390" width="110" height="40" as="geometry"/>
                </mxCell>
                <mxCell id="16" value="TREINADOR" style="rounded=0;whiteSpace=wrap;html=1;" parent="1" vertex="1">
                    <mxGeometry x="810" y="390" width="110" height="40" as="geometry"/>
                </mxCell>
                <mxCell id="17" value="SERVIÃ‡OS_&lt;br&gt;GERAIS" style="rounded=0;whiteSpace=wrap;html=1;" parent="1" vertex="1">
                    <mxGeometry x="940" y="390" width="110" height="40" as="geometry"/>
                </mxCell>
                <mxCell id="18" value="GERENTE" style="rounded=0;whiteSpace=wrap;html=1;" parent="1" vertex="1">
                    <mxGeometry x="550" y="390" width="110" height="40" as="geometry"/>
                </mxCell>
                <mxCell id="19" value="ATIVIDADE_EXTRA" style="rounded=0;whiteSpace=wrap;html=1;" parent="1" vertex="1">
                    <mxGeometry x="1130" y="1000" width="110" height="40" as="geometry"/>
                </mxCell>
                <mxCell id="20" value="SALA" style="rounded=0;whiteSpace=wrap;html=1;" parent="1" vertex="1">
                    <mxGeometry x="1285" y="710" width="110" height="40" as="geometry"/>
                </mxCell>
                <mxCell id="21" value="possui" style="rhombus;whiteSpace=wrap;html=1;" parent="1" vertex="1">
                    <mxGeometry x="945" y="850" width="100" height="70" as="geometry"/>
                </mxCell>
                <mxCell id="22" value="" style="endArrow=none;html=1;" parent="1" source="8" target="21" edge="1">
                    <mxGeometry width="50" height="50" relative="1" as="geometry">
                        <mxPoint x="450" y="1200" as="sourcePoint"/>
                        <mxPoint x="360" y="1200" as="targetPoint"/>
                    </mxGeometry>
                </mxCell>
                <mxCell id="23" value="1,1" style="edgeLabel;html=1;align=center;verticalAlign=middle;resizable=0;points=[];" parent="22" vertex="1" connectable="0">
                    <mxGeometry x="-0.63" y="-4" relative="1" as="geometry">
                        <mxPoint x="-11" y="-4" as="offset"/>
                    </mxGeometry>
                </mxCell>
                <mxCell id="24" value="" style="endArrow=none;html=1;" parent="1" source="21" target="9" edge="1">
                    <mxGeometry width="50" height="50" relative="1" as="geometry">
                        <mxPoint x="875" y="750" as="sourcePoint"/>
                        <mxPoint x="875" y="840" as="targetPoint"/>
                    </mxGeometry>
                </mxCell>
                <mxCell id="25" value="0,N" style="edgeLabel;html=1;align=center;verticalAlign=middle;resizable=0;points=[];" parent="24" vertex="1" connectable="0">
                    <mxGeometry x="0.692" y="-1" relative="1" as="geometry">
                        <mxPoint x="-17" as="offset"/>
                    </mxGeometry>
                </mxCell>
                <mxCell id="26" value="possui" style="rhombus;whiteSpace=wrap;html=1;" parent="1" vertex="1">
                    <mxGeometry x="640" y="985" width="100" height="70" as="geometry"/>
                </mxCell>
                <mxCell id="27" value="" style="endArrow=none;html=1;" parent="1" source="26" target="9" edge="1">
                    <mxGeometry width="50" height="50" relative="1" as="geometry">
                        <mxPoint x="875" y="910" as="sourcePoint"/>
                        <mxPoint x="875" y="1010" as="targetPoint"/>
                    </mxGeometry>
                </mxCell>
                <mxCell id="28" value="1,1" style="edgeLabel;html=1;align=center;verticalAlign=middle;resizable=0;points=[];" parent="27" vertex="1" connectable="0">
                    <mxGeometry x="0.4429" y="2" relative="1" as="geometry">
                        <mxPoint x="9" y="-8" as="offset"/>
                    </mxGeometry>
                </mxCell>
                <mxCell id="29" value="" style="endArrow=none;html=1;" parent="1" source="10" target="26" edge="1">
                    <mxGeometry width="50" height="50" relative="1" as="geometry">
                        <mxPoint x="885" y="920" as="sourcePoint"/>
                        <mxPoint x="885" y="1020" as="targetPoint"/>
                    </mxGeometry>
                </mxCell>
                <mxCell id="30" value="1,N" style="edgeLabel;html=1;align=center;verticalAlign=middle;resizable=0;points=[];" parent="29" vertex="1" connectable="0">
                    <mxGeometry x="-0.4508" y="1" relative="1" as="geometry">
                        <mxPoint x="14" y="-6" as="offset"/>
                    </mxGeometry>
                </mxCell>
                <mxCell id="31" value="utiliza" style="rhombus;whiteSpace=wrap;html=1;" parent="1" vertex="1">
                    <mxGeometry x="390" y="800" width="100" height="70" as="geometry"/>
                </mxCell>
                <mxCell id="32" value="" style="endArrow=none;html=1;" parent="1" source="31" target="10" edge="1">
                    <mxGeometry width="50" height="50" relative="1" as="geometry">
                        <mxPoint x="600" y="1030" as="sourcePoint"/>
                        <mxPoint x="660" y="1030" as="targetPoint"/>
                    </mxGeometry>
                </mxCell>
                <mxCell id="33" value="1,N" style="edgeLabel;html=1;align=center;verticalAlign=middle;resizable=0;points=[];" parent="32" vertex="1" connectable="0">
                    <mxGeometry x="0.5129" y="2" relative="1" as="geometry">
                        <mxPoint x="21" y="-2" as="offset"/>
                    </mxGeometry>
                </mxCell>
                <mxCell id="34" value="" style="endArrow=none;html=1;" parent="1" source="12" target="31" edge="1">
                    <mxGeometry width="50" height="50" relative="1" as="geometry">
                        <mxPoint x="450" y="1050" as="sourcePoint"/>
                        <mxPoint x="510" y="1050" as="targetPoint"/>
                    </mxGeometry>
                </mxCell>
                <mxCell id="35" value="0,1" style="edgeLabel;html=1;align=center;verticalAlign=middle;resizable=0;points=[];" parent="34" vertex="1" connectable="0">
                    <mxGeometry x="-0.5636" y="-1" relative="1" as="geometry">
                        <mxPoint x="15" y="1" as="offset"/>
                    </mxGeometry>
                </mxCell>
                <mxCell id="36" value="fornece" style="rhombus;whiteSpace=wrap;html=1;" parent="1" vertex="1">
                    <mxGeometry x="325" y="540" width="100" height="70" as="geometry"/>
                </mxCell>
                <mxCell id="37" value="" style="endArrow=none;html=1;" parent="1" source="12" target="36" edge="1">
                    <mxGeometry width="50" height="50" relative="1" as="geometry">
                        <mxPoint x="385" y="760" as="sourcePoint"/>
                        <mxPoint x="385" y="850" as="targetPoint"/>
                    </mxGeometry>
                </mxCell>
                <mxCell id="38" value="0, N" style="edgeLabel;html=1;align=center;verticalAlign=middle;resizable=0;points=[];" parent="37" vertex="1" connectable="0">
                    <mxGeometry x="-0.6934" relative="1" as="geometry">
                        <mxPoint x="-15" as="offset"/>
                    </mxGeometry>
                </mxCell>
                <mxCell id="39" value="" style="endArrow=none;html=1;" parent="1" source="36" target="13" edge="1">
                    <mxGeometry width="50" height="50" relative="1" as="geometry">
                        <mxPoint x="385" y="720" as="sourcePoint"/>
                        <mxPoint x="385" y="610" as="targetPoint"/>
                    </mxGeometry>
                </mxCell>
                <mxCell id="40" value="1,1" style="edgeLabel;html=1;align=center;verticalAlign=middle;resizable=0;points=[];" parent="39" vertex="1" connectable="0">
                    <mxGeometry x="0.5185" y="1" relative="1" as="geometry">
                        <mxPoint x="-14" y="-12" as="offset"/>
                    </mxGeometry>
                </mxCell>
                <mxCell id="41" value="d" style="ellipse;whiteSpace=wrap;html=1;aspect=fixed;" parent="1" vertex="1">
                    <mxGeometry x="845" y="230" width="50" height="50" as="geometry"/>
                </mxCell>
                <mxCell id="42" value="" style="endArrow=none;html=1;shape=link;" parent="1" source="11" target="41" edge="1">
                    <mxGeometry width="50" height="50" relative="1" as="geometry">
                        <mxPoint x="765" y="70" as="sourcePoint"/>
                        <mxPoint x="825" y="70" as="targetPoint"/>
                    </mxGeometry>
                </mxCell>
                <mxCell id="47" value="" style="endArrow=none;html=1;" parent="1" source="18" target="41" edge="1">
                    <mxGeometry width="50" height="50" relative="1" as="geometry">
                        <mxPoint x="920" y="240" as="sourcePoint"/>
                        <mxPoint x="920" y="280" as="targetPoint"/>
                    </mxGeometry>
                </mxCell>
                <mxCell id="160" value="&lt;font style=&quot;font-size: 30px;&quot;&gt;U&lt;/font&gt;" style="edgeLabel;html=1;align=center;verticalAlign=middle;resizable=0;points=[];labelBackgroundColor=none;rotation=60;" vertex="1" connectable="0" parent="47">
                    <mxGeometry x="0.1324" y="-3" relative="1" as="geometry">
                        <mxPoint y="-3" as="offset"/>
                    </mxGeometry>
                </mxCell>
                <mxCell id="48" value="utiliza" style="rhombus;whiteSpace=wrap;html=1;" parent="1" vertex="1">
                    <mxGeometry x="1120" y="695" width="100" height="70" as="geometry"/>
                </mxCell>
                <mxCell id="49" value="" style="endArrow=none;html=1;" parent="1" source="48" target="8" edge="1">
                    <mxGeometry width="50" height="50" relative="1" as="geometry">
                        <mxPoint x="885" y="910" as="sourcePoint"/>
                        <mxPoint x="885" y="1010" as="targetPoint"/>
                    </mxGeometry>
                </mxCell>
                <mxCell id="50" value="0,M" style="edgeLabel;html=1;align=center;verticalAlign=middle;resizable=0;points=[];" parent="49" vertex="1" connectable="0">
                    <mxGeometry x="0.6048" y="-2" relative="1" as="geometry">
                        <mxPoint x="-4" y="-8" as="offset"/>
                    </mxGeometry>
                </mxCell>
                <mxCell id="51" value="" style="endArrow=none;html=1;" parent="1" source="48" target="20" edge="1">
                    <mxGeometry width="50" height="50" relative="1" as="geometry">
                        <mxPoint x="1180" y="705" as="sourcePoint"/>
                        <mxPoint x="1180" y="615" as="targetPoint"/>
                    </mxGeometry>
                </mxCell>
                <mxCell id="52" value="0,N" style="edgeLabel;html=1;align=center;verticalAlign=middle;resizable=0;points=[];" parent="51" vertex="1" connectable="0">
                    <mxGeometry x="0.3487" y="-1" relative="1" as="geometry">
                        <mxPoint y="-11" as="offset"/>
                    </mxGeometry>
                </mxCell>
                <mxCell id="53" value="" style="endArrow=none;html=1;" parent="1" source="55" target="19" edge="1">
                    <mxGeometry width="50" height="50" relative="1" as="geometry">
                        <mxPoint x="1110" y="1190" as="sourcePoint"/>
                        <mxPoint x="885" y="1060" as="targetPoint"/>
                    </mxGeometry>
                </mxCell>
                <mxCell id="54" value="0,N" style="edgeLabel;html=1;align=center;verticalAlign=middle;resizable=0;points=[];" parent="53" vertex="1" connectable="0">
                    <mxGeometry x="-0.4733" y="2" relative="1" as="geometry">
                        <mxPoint x="17" y="-8" as="offset"/>
                    </mxGeometry>
                </mxCell>
                <mxCell id="55" value="possui" style="rhombus;whiteSpace=wrap;html=1;" parent="1" vertex="1">
                    <mxGeometry x="980" y="985" width="100" height="70" as="geometry"/>
                </mxCell>
                <mxCell id="56" value="" style="endArrow=none;html=1;" parent="1" source="9" target="55" edge="1">
                    <mxGeometry width="50" height="50" relative="1" as="geometry">
                        <mxPoint x="1140" y="1030" as="sourcePoint"/>
                        <mxPoint x="1090" y="1020" as="targetPoint"/>
                    </mxGeometry>
                </mxCell>
                <mxCell id="57" value="0,N" style="edgeLabel;html=1;align=center;verticalAlign=middle;resizable=0;points=[];" parent="56" vertex="1" connectable="0">
                    <mxGeometry x="-0.6278" y="-3" relative="1" as="geometry">
                        <mxPoint y="-13" as="offset"/>
                    </mxGeometry>
                </mxCell>
                <mxCell id="58" value="atende" style="rhombus;whiteSpace=wrap;html=1;" parent="1" vertex="1">
                    <mxGeometry x="1020" y="540" width="100" height="70" as="geometry"/>
                </mxCell>
                <mxCell id="59" value="" style="endArrow=none;html=1;" parent="1" source="8" target="58" edge="1">
                    <mxGeometry width="50" height="50" relative="1" as="geometry">
                        <mxPoint x="1130" y="740" as="sourcePoint"/>
                        <mxPoint x="1060" y="740" as="targetPoint"/>
                    </mxGeometry>
                </mxCell>
                <mxCell id="60" value="0,N" style="edgeLabel;html=1;align=center;verticalAlign=middle;resizable=0;points=[];" parent="59" vertex="1" connectable="0">
                    <mxGeometry x="-0.7466" y="1" relative="1" as="geometry">
                        <mxPoint x="-13" as="offset"/>
                    </mxGeometry>
                </mxCell>
                <mxCell id="61" value="" style="endArrow=none;html=1;" parent="1" source="14" target="58" edge="1">
                    <mxGeometry width="50" height="50" relative="1" as="geometry">
                        <mxPoint x="1140" y="750" as="sourcePoint"/>
                        <mxPoint x="1070" y="750" as="targetPoint"/>
                    </mxGeometry>
                </mxCell>
                <mxCell id="62" value="1,M" style="edgeLabel;html=1;align=center;verticalAlign=middle;resizable=0;points=[];" parent="61" vertex="1" connectable="0">
                    <mxGeometry x="-0.8014" relative="1" as="geometry">
                        <mxPoint x="14" as="offset"/>
                    </mxGeometry>
                </mxCell>
                <mxCell id="63" value="auxilia" style="rhombus;whiteSpace=wrap;html=1;" parent="1" vertex="1">
                    <mxGeometry x="685" y="695" width="100" height="70" as="geometry"/>
                </mxCell>
                <mxCell id="64" value="" style="endArrow=none;html=1;" parent="1" source="16" target="63" edge="1">
                    <mxGeometry width="50" height="50" relative="1" as="geometry">
                        <mxPoint x="1015.9677419354839" y="720" as="sourcePoint"/>
                        <mxPoint x="1076.1305361305363" y="610.2913752913755" as="targetPoint"/>
                    </mxGeometry>
                </mxCell>
                <mxCell id="65" value="0,M" style="edgeLabel;html=1;align=center;verticalAlign=middle;resizable=0;points=[];" parent="64" vertex="1" connectable="0">
                    <mxGeometry x="-0.8841" y="2" relative="1" as="geometry">
                        <mxPoint x="-12" y="-6" as="offset"/>
                    </mxGeometry>
                </mxCell>
                <mxCell id="66" value="" style="endArrow=none;html=1;" parent="1" source="63" target="8" edge="1">
                    <mxGeometry width="50" height="50" relative="1" as="geometry">
                        <mxPoint x="866.2686567164178" y="440" as="sourcePoint"/>
                        <mxPoint x="920" y="790" as="targetPoint"/>
                    </mxGeometry>
                </mxCell>
                <mxCell id="67" value="0,N" style="edgeLabel;html=1;align=center;verticalAlign=middle;resizable=0;points=[];" parent="66" vertex="1" connectable="0">
                    <mxGeometry x="0.7054" y="-1" relative="1" as="geometry">
                        <mxPoint x="8" y="-11" as="offset"/>
                    </mxGeometry>
                </mxCell>
                <mxCell id="68" value="faz_&lt;br&gt;manutenÃ§Ã£o" style="rhombus;whiteSpace=wrap;html=1;" parent="1" vertex="1">
                    <mxGeometry x="510" y="540" width="100" height="70" as="geometry"/>
                </mxCell>
                <mxCell id="69" value="" style="endArrow=none;html=1;" parent="1" source="15" target="68" edge="1">
                    <mxGeometry width="50" height="50" relative="1" as="geometry">
                        <mxPoint x="700" y="450" as="sourcePoint"/>
                        <mxPoint x="704.5196506550219" y="720.1637554585154" as="targetPoint"/>
                    </mxGeometry>
                </mxCell>
                <mxCell id="70" value="1,1" style="edgeLabel;html=1;align=center;verticalAlign=middle;resizable=0;points=[];" parent="69" vertex="1" connectable="0">
                    <mxGeometry x="-0.8205" y="1" relative="1" as="geometry">
                        <mxPoint x="17" as="offset"/>
                    </mxGeometry>
                </mxCell>
                <mxCell id="71" value="" style="endArrow=none;html=1;startArrow=none;" parent="1" source="68" target="12" edge="1">
                    <mxGeometry width="50" height="50" relative="1" as="geometry">
                        <mxPoint x="454.971910112351" y="647.9775280898962" as="sourcePoint"/>
                        <mxPoint x="714.5196506550219" y="730.1637554585154" as="targetPoint"/>
                    </mxGeometry>
                </mxCell>
                <mxCell id="72" value="0,N" style="edgeLabel;html=1;align=center;verticalAlign=middle;resizable=0;points=[];" parent="71" vertex="1" connectable="0">
                    <mxGeometry x="0.7766" y="-3" relative="1" as="geometry">
                        <mxPoint x="-3" y="-15" as="offset"/>
                    </mxGeometry>
                </mxCell>
                <mxCell id="73" value="gerencia" style="rhombus;whiteSpace=wrap;html=1;" parent="1" vertex="1">
                    <mxGeometry x="590" y="160" width="100" height="70" as="geometry"/>
                </mxCell>
                <mxCell id="74" value="" style="endArrow=none;html=1;" parent="1" source="18" target="73" edge="1">
                    <mxGeometry width="50" height="50" relative="1" as="geometry">
                        <mxPoint x="636.1290322580646" y="400" as="sourcePoint"/>
                        <mxPoint x="858.1276697992294" y="277.10789707542676" as="targetPoint"/>
                    </mxGeometry>
                </mxCell>
                <mxCell id="75" value="1,1" style="edgeLabel;html=1;align=center;verticalAlign=middle;resizable=0;points=[];" parent="74" vertex="1" connectable="0">
                    <mxGeometry x="-0.8275" y="1" relative="1" as="geometry">
                        <mxPoint x="-10" as="offset"/>
                    </mxGeometry>
                </mxCell>
                <mxCell id="76" value="" style="endArrow=none;html=1;" parent="1" source="73" target="11" edge="1">
                    <mxGeometry width="50" height="50" relative="1" as="geometry">
                        <mxPoint x="646.1290322580646" y="410" as="sourcePoint"/>
                        <mxPoint x="760" y="220" as="targetPoint"/>
                    </mxGeometry>
                </mxCell>
                <mxCell id="77" value="0, N" style="edgeLabel;html=1;align=center;verticalAlign=middle;resizable=0;points=[];" parent="76" vertex="1" connectable="0">
                    <mxGeometry x="0.7446" relative="1" as="geometry">
                        <mxPoint y="-18" as="offset"/>
                    </mxGeometry>
                </mxCell>
                <mxCell id="78" value="ferramentas" style="ellipse;whiteSpace=wrap;html=1;rotation=0;" parent="1" vertex="1">
                    <mxGeometry x="640" y="540" width="80" height="40" as="geometry"/>
                </mxCell>
                <mxCell id="79" value="horario" style="ellipse;whiteSpace=wrap;html=1;rotation=0;" parent="1" vertex="1">
                    <mxGeometry x="450" y="470" width="80" height="40" as="geometry"/>
                </mxCell>
                <mxCell id="80" value="" style="endArrow=none;html=1;" parent="1" source="68" target="79" edge="1">
                    <mxGeometry width="50" height="50" relative="1" as="geometry">
                        <mxPoint x="250" y="890" as="sourcePoint"/>
                        <mxPoint x="160" y="890" as="targetPoint"/>
                    </mxGeometry>
                </mxCell>
                <mxCell id="81" value="" style="endArrow=none;html=1;" parent="1" source="68" target="78" edge="1">
                    <mxGeometry width="50" height="50" relative="1" as="geometry">
                        <mxPoint x="551.7164179104477" y="562.7985074626865" as="sourcePoint"/>
                        <mxPoint x="515.2299922101763" y="518.4935619695" as="targetPoint"/>
                    </mxGeometry>
                </mxCell>
                <mxCell id="82" value="&lt;u&gt;id_funcionario&lt;/u&gt;" style="ellipse;whiteSpace=wrap;html=1;rotation=0;" parent="1" vertex="1">
                    <mxGeometry x="970" y="150" width="80" height="40" as="geometry"/>
                </mxCell>
                <mxCell id="83" value="nome" style="ellipse;whiteSpace=wrap;html=1;rotation=0;" parent="1" vertex="1">
                    <mxGeometry x="880" y="65" width="80" height="40" as="geometry"/>
                </mxCell>
                <mxCell id="84" value="contato" style="ellipse;whiteSpace=wrap;html=1;rotation=0;" parent="1" vertex="1">
                    <mxGeometry x="705" y="65" width="80" height="40" as="geometry"/>
                </mxCell>
                <mxCell id="86" value="" style="endArrow=none;html=1;" parent="1" source="11" target="84" edge="1">
                    <mxGeometry width="50" height="50" relative="1" as="geometry">
                        <mxPoint x="649.1935483870968" y="400" as="sourcePoint"/>
                        <mxPoint x="858.4203099217607" y="277.62208287595126" as="targetPoint"/>
                    </mxGeometry>
                </mxCell>
                <mxCell id="87" value="" style="endArrow=none;html=1;" parent="1" source="83" target="11" edge="1">
                    <mxGeometry width="50" height="50" relative="1" as="geometry">
                        <mxPoint x="857.8947368421052" y="160" as="sourcePoint"/>
                        <mxPoint x="794.3474444675937" y="102.50483070877544" as="targetPoint"/>
                    </mxGeometry>
                </mxCell>
                <mxCell id="88" value="" style="endArrow=none;html=1;" parent="1" source="11" target="82" edge="1">
                    <mxGeometry width="50" height="50" relative="1" as="geometry">
                        <mxPoint x="867.8947368421052" y="170" as="sourcePoint"/>
                        <mxPoint x="804.3474444675937" y="112.50483070877544" as="targetPoint"/>
                    </mxGeometry>
                </mxCell>
                <mxCell id="89" value="&lt;u&gt;id_aluno&lt;/u&gt;" style="ellipse;whiteSpace=wrap;html=1;rotation=0;" parent="1" vertex="1">
                    <mxGeometry x="925" y="600" width="80" height="40" as="geometry"/>
                </mxCell>
                <mxCell id="90" value="nome" style="ellipse;whiteSpace=wrap;html=1;rotation=0;" parent="1" vertex="1">
                    <mxGeometry x="810" y="630" width="80" height="40" as="geometry"/>
                </mxCell>
                <mxCell id="93" value="contato" style="ellipse;whiteSpace=wrap;html=1;rotation=0;" parent="1" vertex="1">
                    <mxGeometry x="1040" y="780" width="90" height="50" as="geometry"/>
                </mxCell>
                <mxCell id="94" value="endereÃ§o" style="ellipse;whiteSpace=wrap;html=1;rotation=0;" parent="1" vertex="1">
                    <mxGeometry x="1045" y="785" width="80" height="40" as="geometry"/>
                </mxCell>
                <mxCell id="95" value="" style="endArrow=none;html=1;" parent="1" source="89" target="8" edge="1">
                    <mxGeometry width="50" height="50" relative="1" as="geometry">
                        <mxPoint x="612.4242424242425" y="579.6969696969697" as="sourcePoint"/>
                        <mxPoint x="651.1942999941866" y="574.8507125007268" as="targetPoint"/>
                    </mxGeometry>
                </mxCell>
                <mxCell id="96" value="" style="endArrow=none;html=1;" parent="1" source="90" target="8" edge="1">
                    <mxGeometry width="50" height="50" relative="1" as="geometry">
                        <mxPoint x="980.2865488036407" y="649.8245580136527" as="sourcePoint"/>
                        <mxPoint x="999.5454545454545" y="720" as="targetPoint"/>
                    </mxGeometry>
                </mxCell>
                <mxCell id="97" value="" style="endArrow=none;html=1;" parent="1" source="113" target="8" edge="1">
                    <mxGeometry width="50" height="50" relative="1" as="geometry">
                        <mxPoint x="912.9384937745181" y="788.6153615896299" as="sourcePoint"/>
                        <mxPoint x="960" y="730" as="targetPoint"/>
                    </mxGeometry>
                </mxCell>
                <mxCell id="98" value="" style="endArrow=none;html=1;" parent="1" source="94" target="8" edge="1">
                    <mxGeometry width="50" height="50" relative="1" as="geometry">
                        <mxPoint x="922.9384937745253" y="798.6153615896251" as="sourcePoint"/>
                        <mxPoint x="977" y="760" as="targetPoint"/>
                    </mxGeometry>
                </mxCell>
                <mxCell id="99" value="&lt;u&gt;id_plano&lt;/u&gt;" style="ellipse;whiteSpace=wrap;html=1;rotation=0;" parent="1" vertex="1">
                    <mxGeometry x="730" y="920" width="80" height="40" as="geometry"/>
                </mxCell>
                <mxCell id="100" value="duraÃ§Ã£o" style="ellipse;whiteSpace=wrap;html=1;rotation=0;" parent="1" vertex="1">
                    <mxGeometry x="830" y="910" width="80" height="40" as="geometry"/>
                </mxCell>
                <mxCell id="101" value="" style="endArrow=none;html=1;" parent="1" source="100" target="9" edge="1">
                    <mxGeometry width="50" height="50" relative="1" as="geometry">
                        <mxPoint x="922.9384937745181" y="798.6153615896299" as="sourcePoint"/>
                        <mxPoint x="977" y="760" as="targetPoint"/>
                    </mxGeometry>
                </mxCell>
                <mxCell id="102" value="" style="endArrow=none;html=1;" parent="1" source="99" target="9" edge="1">
                    <mxGeometry width="50" height="50" relative="1" as="geometry">
                        <mxPoint x="932.9384937745181" y="808.6153615896299" as="sourcePoint"/>
                        <mxPoint x="987" y="770" as="targetPoint"/>
                    </mxGeometry>
                </mxCell>
                <mxCell id="103" value="&lt;u&gt;id_exercicio&lt;/u&gt;" style="ellipse;whiteSpace=wrap;html=1;rotation=0;" parent="1" vertex="1">
                    <mxGeometry x="530" y="810" width="80" height="40" as="geometry"/>
                </mxCell>
                <mxCell id="104" value="nome" style="ellipse;whiteSpace=wrap;html=1;rotation=0;" parent="1" vertex="1">
                    <mxGeometry x="640" y="850" width="80" height="40" as="geometry"/>
                </mxCell>
                <mxCell id="105" value="serieXreptiÃ§Ã£o" style="ellipse;whiteSpace=wrap;html=1;rotation=0;" parent="1" vertex="1">
                    <mxGeometry x="400" y="920" width="80" height="40" as="geometry"/>
                </mxCell>
                <mxCell id="106" value="" style="endArrow=none;html=1;" parent="1" source="104" target="10" edge="1">
                    <mxGeometry width="50" height="50" relative="1" as="geometry">
                        <mxPoint x="800.3684996500824" y="967.2128166057037" as="sourcePoint"/>
                        <mxPoint x="851.25" y="1010" as="targetPoint"/>
                    </mxGeometry>
                </mxCell>
                <mxCell id="107" value="" style="endArrow=none;html=1;" parent="1" source="103" target="10" edge="1">
                    <mxGeometry width="50" height="50" relative="1" as="geometry">
                        <mxPoint x="810.3684996500824" y="977.2128166057037" as="sourcePoint"/>
                        <mxPoint x="861.25" y="1020" as="targetPoint"/>
                    </mxGeometry>
                </mxCell>
                <mxCell id="108" value="" style="endArrow=none;html=1;" parent="1" source="105" target="10" edge="1">
                    <mxGeometry width="50" height="50" relative="1" as="geometry">
                        <mxPoint x="820.3684996500824" y="987.2128166057037" as="sourcePoint"/>
                        <mxPoint x="871.25" y="1030" as="targetPoint"/>
                    </mxGeometry>
                </mxCell>
                <mxCell id="109" value="descriÃ§Ã£o" style="ellipse;whiteSpace=wrap;html=1;rotation=0;" parent="1" vertex="1">
                    <mxGeometry x="500" y="980" width="80" height="40" as="geometry"/>
                </mxCell>
                <mxCell id="110" value="" style="endArrow=none;html=1;" parent="1" source="109" target="10" edge="1">
                    <mxGeometry width="50" height="50" relative="1" as="geometry">
                        <mxPoint x="658.7652476222788" y="892.4939009510883" as="sourcePoint"/>
                        <mxPoint x="615" y="910" as="targetPoint"/>
                    </mxGeometry>
                </mxCell>
                <mxCell id="113" value="contato" style="ellipse;shape=doubleEllipse;whiteSpace=wrap;html=1;" parent="1" vertex="1">
                    <mxGeometry x="845" y="775" width="95" height="50" as="geometry"/>
                </mxCell>
                <mxCell id="128" value="&lt;u&gt;id_&lt;br&gt;equipamento&lt;/u&gt;" style="ellipse;whiteSpace=wrap;html=1;rotation=0;" parent="1" vertex="1">
                    <mxGeometry x="480" y="670" width="80" height="40" as="geometry"/>
                </mxCell>
                <mxCell id="129" value="descriÃ§Ã£o" style="ellipse;whiteSpace=wrap;html=1;rotation=0;" parent="1" vertex="1">
                    <mxGeometry x="470" y="745" width="80" height="40" as="geometry"/>
                </mxCell>
                <mxCell id="130" value="" style="endArrow=none;html=1;" parent="1" source="129" target="12" edge="1">
                    <mxGeometry width="50" height="50" relative="1" as="geometry">
                        <mxPoint x="576.8667993358122" y="859.9385496811938" as="sourcePoint"/>
                        <mxPoint x="568.3333333333333" y="910" as="targetPoint"/>
                    </mxGeometry>
                </mxCell>
                <mxCell id="131" value="" style="endArrow=none;html=1;" parent="1" source="128" target="12" edge="1">
                    <mxGeometry width="50" height="50" relative="1" as="geometry">
                        <mxPoint x="586.8667993358122" y="869.9385496811938" as="sourcePoint"/>
                        <mxPoint x="578.3333333333333" y="920" as="targetPoint"/>
                    </mxGeometry>
                </mxCell>
                <mxCell id="132" value="&lt;u&gt;id_fornecedor&lt;br&gt;&lt;/u&gt;" style="ellipse;whiteSpace=wrap;html=1;rotation=0;" parent="1" vertex="1">
                    <mxGeometry x="230" y="350" width="80" height="40" as="geometry"/>
                </mxCell>
                <mxCell id="137" value="nome" style="ellipse;whiteSpace=wrap;html=1;rotation=0;" parent="1" vertex="1">
                    <mxGeometry x="320" y="310" width="80" height="40" as="geometry"/>
                </mxCell>
                <mxCell id="138" value="contato" style="ellipse;shape=doubleEllipse;whiteSpace=wrap;html=1;" parent="1" vertex="1">
                    <mxGeometry x="425" y="320" width="95" height="50" as="geometry"/>
                </mxCell>
                <mxCell id="139" value="" style="endArrow=none;html=1;" parent="1" source="13" target="138" edge="1">
                    <mxGeometry width="50" height="50" relative="1" as="geometry">
                        <mxPoint x="551.7164179104477" y="562.7985074626865" as="sourcePoint"/>
                        <mxPoint x="515.2299922101763" y="518.4935619694998" as="targetPoint"/>
                    </mxGeometry>
                </mxCell>
                <mxCell id="140" value="" style="endArrow=none;html=1;" parent="1" source="137" target="13" edge="1">
                    <mxGeometry width="50" height="50" relative="1" as="geometry">
                        <mxPoint x="407.9808399462879" y="420" as="sourcePoint"/>
                        <mxPoint x="370" y="430" as="targetPoint"/>
                    </mxGeometry>
                </mxCell>
                <mxCell id="141" value="" style="endArrow=none;html=1;" parent="1" source="132" target="13" edge="1">
                    <mxGeometry width="50" height="50" relative="1" as="geometry">
                        <mxPoint x="417.9808399462879" y="430" as="sourcePoint"/>
                        <mxPoint x="468.04291481794985" y="386.4314663966418" as="targetPoint"/>
                    </mxGeometry>
                </mxCell>
                <mxCell id="147" value="&lt;u&gt;id_extra&lt;/u&gt;" style="ellipse;whiteSpace=wrap;html=1;rotation=0;" parent="1" vertex="1">
                    <mxGeometry x="1050" y="930" width="80" height="40" as="geometry"/>
                </mxCell>
                <mxCell id="148" value="tipo" style="ellipse;shape=doubleEllipse;whiteSpace=wrap;html=1;" parent="1" vertex="1">
                    <mxGeometry x="1145" y="920" width="95" height="50" as="geometry"/>
                </mxCell>
                <mxCell id="149" value="" style="endArrow=none;html=1;" parent="1" source="147" target="19" edge="1">
                    <mxGeometry width="50" height="50" relative="1" as="geometry">
                        <mxPoint x="931.4420972707046" y="790.1766457049969" as="sourcePoint"/>
                        <mxPoint x="975.7142857142858" y="760" as="targetPoint"/>
                    </mxGeometry>
                </mxCell>
                <mxCell id="150" value="" style="endArrow=none;html=1;" parent="1" source="19" target="148" edge="1">
                    <mxGeometry width="50" height="50" relative="1" as="geometry">
                        <mxPoint x="1130.5798302170829" y="977.1498585142358" as="sourcePoint"/>
                        <mxPoint x="1170.7142857142858" y="1010" as="targetPoint"/>
                    </mxGeometry>
                </mxCell>
                <mxCell id="151" value="&lt;u&gt;id_sala&lt;/u&gt;" style="ellipse;whiteSpace=wrap;html=1;rotation=0;" parent="1" vertex="1">
                    <mxGeometry x="1205" y="620" width="80" height="40" as="geometry"/>
                </mxCell>
                <mxCell id="152" value="finalidade" style="ellipse;whiteSpace=wrap;html=1;rotation=0;" parent="1" vertex="1">
                    <mxGeometry x="1315" y="610" width="80" height="40" as="geometry"/>
                </mxCell>
                <mxCell id="154" value="horario" style="ellipse;shape=doubleEllipse;whiteSpace=wrap;html=1;" parent="1" vertex="1">
                    <mxGeometry x="1260" y="950" width="95" height="50" as="geometry"/>
                </mxCell>
                <mxCell id="155" value="" style="endArrow=none;html=1;" parent="1" source="19" target="154" edge="1">
                    <mxGeometry width="50" height="50" relative="1" as="geometry">
                        <mxPoint x="1197.0665463045575" y="1010" as="sourcePoint"/>
                        <mxPoint x="1200.1694768070538" y="979.9698913529974" as="targetPoint"/>
                    </mxGeometry>
                </mxCell>
                <mxCell id="156" value="" style="endArrow=none;html=1;" parent="1" source="151" target="20" edge="1">
                    <mxGeometry width="50" height="50" relative="1" as="geometry">
                        <mxPoint x="1197.0665463045575" y="1010" as="sourcePoint"/>
                        <mxPoint x="1200.1694768070538" y="979.9698913529974" as="targetPoint"/>
                    </mxGeometry>
                </mxCell>
                <mxCell id="157" value="" style="endArrow=none;html=1;" parent="1" source="152" target="20" edge="1">
                    <mxGeometry width="50" height="50" relative="1" as="geometry">
                        <mxPoint x="1281.453602689025" y="648.7436454031676" as="sourcePoint"/>
                        <mxPoint x="1335" y="720" as="targetPoint"/>
                    </mxGeometry>
                </mxCell>
                <mxCell id="161" value="" style="endArrow=none;html=1;" edge="1" parent="1" source="15" target="41">
                    <mxGeometry width="50" height="50" relative="1" as="geometry">
                        <mxPoint x="649.1935483870968" y="400" as="sourcePoint"/>
                        <mxPoint x="858.4203099217766" y="277.62208287594217" as="targetPoint"/>
                    </mxGeometry>
                </mxCell>
                <mxCell id="162" value="&lt;font style=&quot;font-size: 30px;&quot;&gt;U&lt;/font&gt;" style="edgeLabel;html=1;align=center;verticalAlign=middle;resizable=0;points=[];labelBackgroundColor=none;rotation=45;" vertex="1" connectable="0" parent="161">
                    <mxGeometry x="0.1324" y="-3" relative="1" as="geometry">
                        <mxPoint y="-3" as="offset"/>
                    </mxGeometry>
                </mxCell>
                <mxCell id="163" value="" style="endArrow=none;html=1;" edge="1" parent="1" source="16" target="41">
                    <mxGeometry width="50" height="50" relative="1" as="geometry">
                        <mxPoint x="659.1935483870968" y="410" as="sourcePoint"/>
                        <mxPoint x="868.4203099217766" y="287.62208287594217" as="targetPoint"/>
                    </mxGeometry>
                </mxCell>
                <mxCell id="164" value="&lt;font style=&quot;font-size: 30px;&quot;&gt;U&lt;/font&gt;" style="edgeLabel;html=1;align=center;verticalAlign=middle;resizable=0;points=[];labelBackgroundColor=none;rotation=0;" vertex="1" connectable="0" parent="163">
                    <mxGeometry x="0.1324" y="-3" relative="1" as="geometry">
                        <mxPoint y="-3" as="offset"/>
                    </mxGeometry>
                </mxCell>
                <mxCell id="165" value="" style="endArrow=none;html=1;" edge="1" parent="1" source="17" target="41">
                    <mxGeometry width="50" height="50" relative="1" as="geometry">
                        <mxPoint x="669.1935483870968" y="420" as="sourcePoint"/>
                        <mxPoint x="878.4203099217766" y="297.62208287594217" as="targetPoint"/>
                    </mxGeometry>
                </mxCell>
                <mxCell id="166" value="&lt;font style=&quot;font-size: 30px;&quot;&gt;U&lt;/font&gt;" style="edgeLabel;html=1;align=center;verticalAlign=middle;resizable=0;points=[];labelBackgroundColor=none;rotation=-45;" vertex="1" connectable="0" parent="165">
                    <mxGeometry x="0.1324" y="-3" relative="1" as="geometry">
                        <mxPoint x="-8" y="-3" as="offset"/>
                    </mxGeometry>
                </mxCell>
                <mxCell id="167" value="" style="endArrow=none;html=1;" edge="1" parent="1" source="14" target="41">
                    <mxGeometry width="50" height="50" relative="1" as="geometry">
                        <mxPoint x="679.1935483870968" y="430" as="sourcePoint"/>
                        <mxPoint x="888.4203099217766" y="307.62208287594217" as="targetPoint"/>
                    </mxGeometry>
                </mxCell>
                <mxCell id="168" value="&lt;font style=&quot;font-size: 30px;&quot;&gt;U&lt;/font&gt;" style="edgeLabel;html=1;align=center;verticalAlign=middle;resizable=0;points=[];labelBackgroundColor=none;rotation=-60;" vertex="1" connectable="0" parent="167">
                    <mxGeometry x="0.1324" y="-3" relative="1" as="geometry">
                        <mxPoint y="2" as="offset"/>
                    </mxGeometry>
                </mxCell>
            </root>
        </mxGraphModel>
    </diagram>
</mxfile>